<svg width="39" height="68" viewBox="0 0 39 68" fill="none" xmlns="http://www.w3.org/2000/svg">
<ellipse cx="19.3447" cy="19.2107" rx="19" ry="18.8571" fill="black"/>
<path d="M18 38H21V66.2363C21 67.0647 20.3284 67.7363 19.5 67.7363V67.7363C18.6716 67.7363 18 67.0647 18 66.2363V38Z" fill="black"/>
<path d="M20.1411 20.2704C24.7675 19.0611 25.1122 25.0762 29.753 23.8187C30.5547 21.1226 30.9556 19.7746 31.7573 17.0786C27.1309 18.2879 26.7862 12.2729 22.1454 13.5304C21.3437 16.2264 20.9428 17.5744 20.1411 20.2704Z" fill="white"/>
<path d="M18.6094 25.422L20.1842 20.1262M20.1411 20.2704C24.7675 19.0611 25.1122 25.0762 29.753 23.8187C30.5547 21.1226 30.9556 19.7746 31.7573 17.0786C27.1309 18.2879 26.7862 12.2729 22.1454 13.5304C21.3437 16.2264 20.9428 17.5744 20.1411 20.2704Z" stroke="white" stroke-width="1.10983" stroke-miterlimit="10" stroke-linecap="round" stroke-linejoin="round"/>
<path d="M19.4686 20.0476C14.8983 18.6436 14.2955 24.6386 9.71299 23.1859C9.02779 20.4584 8.6852 19.0946 8 16.3671C12.5703 17.7711 13.173 11.7761 17.7556 13.2288C18.4408 15.9563 18.7834 17.3201 19.4686 20.0476Z" fill="white"/>
<path d="M20.7778 25.2591L19.4319 19.9014M19.4686 20.0476C14.8983 18.6436 14.2955 24.6386 9.71299 23.1859C9.02779 20.4584 8.6852 19.0946 8 16.3671C12.5703 17.7711 13.173 11.7761 17.7556 13.2288C18.4408 15.9563 18.7834 17.3201 19.4686 20.0476Z" stroke="white" stroke-width="1.10983" stroke-miterlimit="10" stroke-linecap="round" stroke-linejoin="round"/>
</svg>
