<svg width="57" height="90" viewBox="0 0 57 90" fill="none" xmlns="http://www.w3.org/2000/svg">
<path d="M56.204 28.103C56.204 12.582 43.622 0 28.102 0C12.582 0 0 12.582 0 28.103C0 43.288 12.046 55.652 27.102 56.18V89.97H29.102V56.179C44.158 55.652 56.204 43.288 56.204 28.103Z" fill="black"/>
<path d="M19.6979 32.6497C19.7973 32.7169 19.9142 32.7754 20.0487 32.828C20.2533 32.9069 20.4959 32.9683 20.7678 33.0209C21.0221 33.0735 21.3027 33.1174 21.5921 33.1642C22.1768 33.2577 22.814 33.3629 23.4484 33.5179C24.0827 33.6699 24.717 33.8686 25.287 34.085L25.7723 34.272L26.2809 34.4767L27.2953 34.883C27.953 35.149 28.6984 35.4472 29.4321 35.6693C30.9113 36.1312 32.443 36.4148 33.9865 36.5258C34.7553 36.5843 35.5475 36.5755 36.2578 36.5726L38.4444 36.5609H38.7191H38.8565L39.0816 36.5492C39.3856 36.5229 39.6896 36.4498 39.9703 36.33C40.5315 36.0844 41.0109 35.6606 41.312 35.1285C41.4611 34.8625 41.5693 34.5731 41.6277 34.272C41.654 34.12 41.6745 33.971 41.6745 33.8189C41.6774 33.7313 41.6745 33.6903 41.6745 33.6465V33.5091L41.6657 32.4158L41.6102 23.6696L41.5985 21.4831V21.2083V21.141V21.0533L41.5839 20.8312C41.5517 20.5359 41.4728 20.2465 41.3529 19.9747C41.1103 19.431 40.6835 18.9837 40.1632 18.6972C39.903 18.5569 39.6166 18.4605 39.3272 18.4079C39.181 18.3815 39.0348 18.3698 38.8858 18.3669H38.6022H37.5089H35.3341C33.9105 18.3523 32.4898 18.1301 31.1305 17.7092C30.7914 17.604 30.4523 17.487 30.122 17.3555L29.0667 16.9346L28.0056 16.5107C27.6519 16.3675 27.2748 16.2213 26.9007 16.0898C25.404 15.549 23.7962 15.1719 22.1768 15.052C21.7734 15.0257 21.37 15.0023 20.9666 15.0023C20.8116 14.9965 20.455 14.9965 20.1598 15.0666C19.8557 15.1309 19.5664 15.2537 19.3062 15.4203C18.7859 15.7477 18.3766 16.2535 18.1778 16.8439C18.0784 17.1333 18.0288 17.4549 18.0288 17.7443V18.3172L18.0346 36.6077C18.0346 38.613 17.7481 41.5917 18.8239 41.7204C19.9873 41.8577 19.6599 38.7416 19.6745 36.8357C19.6833 35.4413 19.6862 34.047 19.692 32.6555L19.6979 32.6497ZM19.7271 17.6157C19.7359 17.5601 19.7447 17.5017 19.7593 17.4461C19.7914 17.335 19.8382 17.2298 19.9025 17.1363C20.0341 16.9463 20.2299 16.803 20.4492 16.7329C20.5661 16.7007 20.6567 16.6861 20.8087 16.6861C20.9899 16.689 21.1683 16.6861 21.3495 16.6949C22.7877 16.7329 24.1996 16.9813 25.5735 17.414C26.2663 17.6303 26.9328 17.8846 27.6256 18.1652L29.7157 18.9954C31.1656 19.5391 32.6974 19.8811 34.2437 19.9981C34.6296 20.0244 35.0184 20.0448 35.4042 20.0448H36.5267L38.763 20.0536C38.8711 20.0536 38.9121 20.0595 38.9735 20.0624C39.029 20.0712 39.0875 20.0799 39.143 20.0975C39.2512 20.1296 39.3564 20.1793 39.4499 20.2436C39.64 20.3752 39.7773 20.5739 39.8446 20.7903C39.8563 20.8458 39.8738 20.9013 39.8797 20.9569C39.8855 20.9861 39.8855 21.0124 39.8855 21.0417C39.8855 21.0709 39.8884 21.0943 39.8855 21.1498V21.7081L39.8767 22.8248L39.7978 31.7669L39.7832 32.8835L39.7744 33.4419V33.7225C39.7656 33.7751 39.7656 33.8248 39.751 33.8745C39.6838 34.272 39.3096 34.5877 38.9238 34.5965L36.7518 34.5614L35.6352 34.5381C35.2668 34.5322 34.9219 34.5176 34.5624 34.4913C33.1446 34.389 31.7473 34.1142 30.4026 33.6816C30.0665 33.5705 29.7332 33.4535 29.4058 33.3249C29.0755 33.1992 28.7627 33.0589 28.4119 32.9069L26.354 32.0095C25.6875 31.7259 24.907 31.4336 24.0944 31.2378C23.2817 31.0419 22.4399 30.9484 21.712 30.9776C21.3495 30.9893 21.0075 31.0331 20.7152 31.0945C20.4345 31.1588 20.1861 31.2348 19.9814 31.3342C19.8704 31.3868 19.7768 31.4453 19.692 31.5067C19.7067 27.3207 19.7154 23.1347 19.7125 18.9486V17.832C19.7125 17.7238 19.7154 17.68 19.7184 17.6215L19.7271 17.6157Z" fill="white"/>
</svg>
