<svg width="513" height="513" viewBox="0 0 513 513" fill="none" xmlns="http://www.w3.org/2000/svg">
<path d="M427.5 213.75C427.5 342 256.5 470.25 256.5 470.25C256.5 470.25 85.5 342 85.5 213.75C85.5 168.398 103.516 124.904 135.585 92.8352C167.653 60.7665 211.148 42.7505 256.5 42.7505C301.852 42.7505 345.347 60.7665 377.415 92.8352C409.484 124.904 427.5 168.398 427.5 213.75Z" fill="white" stroke="#217BC9" stroke-width="42.75" stroke-linecap="round" stroke-linejoin="round"/>
<path d="M191.779 251.924C191.779 251.924 199.974 243.729 224.559 243.729C249.144 243.729 265.533 260.119 290.118 260.119C314.703 260.119 322.898 251.924 322.898 251.924V153.586C322.898 153.586 314.703 161.78 290.118 161.78C265.533 161.78 249.144 145.391 224.559 145.391C199.974 145.391 191.779 153.586 191.779 153.586V251.924Z" fill="white" stroke="#000" stroke-width="29.5016" stroke-linecap="round" stroke-linejoin="round"/>
<path d="M191.779 309.288V251.923" stroke="#000" stroke-width="29.5016" stroke-linecap="round" stroke-linejoin="round"/>
</svg>
