<svg width="38" height="68" viewBox="0 0 38 68" fill="none" xmlns="http://www.w3.org/2000/svg">
<ellipse cx="19" cy="19.2107" rx="19" ry="18.8571" fill="black"/>
<path d="M18 38H21V66.2363C21 67.0647 20.3284 67.7363 19.5 67.7363V67.7363C18.6716 67.7363 18 67.0647 18 66.2363V38Z" fill="black"/>
<path d="M24.6923 26.9196V25.2618C24.6923 24.3825 24.3403 23.5392 23.7139 22.9174C23.0874 22.2956 22.2376 21.9463 21.3516 21.9463H16.3407C15.4547 21.9463 14.605 22.2956 13.9785 22.9174C13.352 23.5392 13 24.3825 13 25.2618V26.9196" stroke="white" stroke-width="1.69912" stroke-linecap="round" stroke-linejoin="round"/>
<path d="M18.8455 18.6311C20.6905 18.6311 22.1862 17.1467 22.1862 15.3155C22.1862 13.4844 20.6905 12 18.8455 12C17.0005 12 15.5049 13.4844 15.5049 15.3155C15.5049 17.1467 17.0005 18.6311 18.8455 18.6311Z" stroke="white" stroke-width="1.69912" stroke-linecap="round" stroke-linejoin="round"/>
</svg>
