<svg width="57" height="90" viewBox="0 0 57 90" fill="none" xmlns="http://www.w3.org/2000/svg">
<path d="M56.204 28.103C56.204 12.582 43.622 0 28.102 0C12.582 0 0 12.582 0 28.103C0 43.288 12.046 55.652 27.102 56.18V89.97H29.102V56.179C44.158 55.652 56.204 43.288 56.204 28.103Z" fill="black"/>
<path d="M35.0304 20.66C35.0304 16.99 32.0404 14 28.3604 14C24.6804 14 21.6904 16.99 21.6904 20.66C21.6904 24.33 24.6804 27.33 28.3604 27.33C32.0404 27.33 35.0304 24.34 35.0304 20.66Z" fill="white"/>
<path d="M17 32.5801V33.2901C17 38.0601 20.88 41.9401 25.65 41.9401H31.07C35.84 41.9401 39.72 38.0601 39.72 33.2901V32.5801C39.72 30.9201 38.38 29.5801 36.72 29.5801H20C18.34 29.5801 17 30.9201 17 32.5801Z" fill="white"/>
</svg>
